<svg xmlns="http://www.w3.org/2000/svg" xmlns:xlink="http://www.w3.org/1999/xlink" contentStyleType="text/css" data-diagram-type="CLASS" height="621px" preserveAspectRatio="none" style="width:1361px;height:621px;background:#FFFFFF;" version="1.1" viewBox="0 0 1361 621" width="1361px" zoomAndPan="magnify"><defs/><g><!--class Addresses--><g class="entity" data-entity="Addresses" data-source-line="2" data-uid="ent0002" id="entity_Addresses"><rect fill="#F1F1F1" height="145.7813" rx="2.5" ry="2.5" style="stroke:#181818;stroke-width:0.5;" width="188.0732" x="405.26" y="262.37"/><ellipse cx="458.9392" cy="278.37" fill="#ADD1B2" rx="11" ry="11" style="stroke:#181818;stroke-width:1;"/><path d="M461.9079,284.0106 Q461.3298,284.3075 460.6892,284.4481 Q460.0486,284.6044 459.3454,284.6044 Q456.8454,284.6044 455.5173,282.9638 Q454.2048,281.3075 454.2048,278.1825 Q454.2048,275.0575 455.5173,273.4013 Q456.8454,271.745 459.3454,271.745 Q460.0486,271.745 460.6892,271.9013 Q461.3454,272.0575 461.9079,272.3544 L461.9079,275.0731 Q461.2829,274.495 460.6892,274.2294 Q460.0954,273.9481 459.4704,273.9481 Q458.1267,273.9481 457.4392,275.0263 Q456.7517,276.0888 456.7517,278.1825 Q456.7517,280.2763 457.4392,281.3544 Q458.1267,282.4169 459.4704,282.4169 Q460.0954,282.4169 460.6892,282.1513 Q461.2829,281.87 461.9079,281.2919 L461.9079,284.0106 Z " fill="#000000"/><text fill="#000000" font-family="sans-serif" font-size="14" lengthAdjust="spacing" textLength="72.2148" x="479.4392" y="283.2167">Addresses</text><line style="stroke:#181818;stroke-width:0.5;" x1="406.26" x2="592.3332" y1="294.37" y2="294.37"/><ellipse cx="416.26" cy="308.0184" fill="none" rx="3" ry="3" style="stroke:#038048;stroke-width:1;"/><text fill="#000000" font-family="sans-serif" font-size="14" lengthAdjust="spacing" textLength="102.5049" x="425.26" y="311.3651">address_id: int</text><line style="stroke:#181818;stroke-width:0.5;" x1="406.26" x2="592.3332" y1="318.6669" y2="318.6669"/><ellipse cx="416.26" cy="332.3153" fill="#84BE84" rx="3" ry="3" style="stroke:#038048;stroke-width:1;"/><text fill="#000000" font-family="sans-serif" font-size="14" lengthAdjust="spacing" textLength="99.5859" x="425.26" y="335.662">add_address()</text><ellipse cx="416.26" cy="348.6122" fill="#84BE84" rx="3" ry="3" style="stroke:#038048;stroke-width:1;"/><text fill="#000000" font-family="sans-serif" font-size="14" lengthAdjust="spacing" textLength="121.4268" x="425.26" y="351.9589">modify_address()</text><ellipse cx="416.26" cy="364.9091" fill="#84BE84" rx="3" ry="3" style="stroke:#038048;stroke-width:1;"/><text fill="#000000" font-family="sans-serif" font-size="14" lengthAdjust="spacing" textLength="96.2227" x="425.26" y="368.2557">get_address()</text><ellipse cx="416.26" cy="381.2059" fill="#84BE84" rx="3" ry="3" style="stroke:#038048;stroke-width:1;"/><text fill="#000000" font-family="sans-serif" font-size="14" lengthAdjust="spacing" textLength="117.3389" x="425.26" y="384.5526">delete_address()</text><ellipse cx="416.26" cy="397.5028" fill="#84BE84" rx="3" ry="3" style="stroke:#038048;stroke-width:1;"/><text fill="#000000" font-family="sans-serif" font-size="14" lengthAdjust="spacing" textLength="162.0732" x="425.26" y="400.8495">get_google_maps_api()</text></g><!--class CuisineTypes--><g class="entity" data-entity="CuisineTypes" data-source-line="14" data-uid="ent0003" id="entity_CuisineTypes"><rect fill="#F1F1F1" height="96.8906" rx="2.5" ry="2.5" style="stroke:#181818;stroke-width:0.5;" width="160.5996" x="7" y="286.82"/><ellipse cx="38.0923" cy="302.82" fill="#ADD1B2" rx="11" ry="11" style="stroke:#181818;stroke-width:1;"/><path d="M41.0611,308.4606 Q40.483,308.7575 39.8423,308.8981 Q39.2017,309.0544 38.4986,309.0544 Q35.9986,309.0544 34.6705,307.4138 Q33.358,305.7575 33.358,302.6325 Q33.358,299.5075 34.6705,297.8513 Q35.9986,296.195 38.4986,296.195 Q39.2017,296.195 39.8423,296.3513 Q40.4986,296.5075 41.0611,296.8044 L41.0611,299.5231 Q40.4361,298.945 39.8423,298.6794 Q39.2486,298.3981 38.6236,298.3981 Q37.2798,298.3981 36.5923,299.4763 Q35.9048,300.5388 35.9048,302.6325 Q35.9048,304.7263 36.5923,305.8044 Q37.2798,306.8669 38.6236,306.8669 Q39.2486,306.8669 39.8423,306.6013 Q40.4361,306.32 41.0611,305.7419 L41.0611,308.4606 Z " fill="#000000"/><text fill="#000000" font-family="sans-serif" font-size="14" lengthAdjust="spacing" textLength="92.8389" x="55.6684" y="307.6667">CuisineTypes</text><line style="stroke:#181818;stroke-width:0.5;" x1="8" x2="166.5996" y1="318.82" y2="318.82"/><ellipse cx="18" cy="332.4684" fill="none" rx="3" ry="3" style="stroke:#038048;stroke-width:1;"/><text fill="#000000" font-family="sans-serif" font-size="14" lengthAdjust="spacing" textLength="134.5996" x="27" y="335.8151">cuisine_type_id: int</text><line style="stroke:#181818;stroke-width:0.5;" x1="8" x2="166.5996" y1="343.1169" y2="343.1169"/><ellipse cx="18" cy="356.7653" fill="#84BE84" rx="3" ry="3" style="stroke:#038048;stroke-width:1;"/><text fill="#000000" font-family="sans-serif" font-size="14" lengthAdjust="spacing" textLength="93.4063" x="27" y="360.112">add_cuisine()</text><ellipse cx="18" cy="373.0622" fill="#84BE84" rx="3" ry="3" style="stroke:#038048;stroke-width:1;"/><text fill="#000000" font-family="sans-serif" font-size="14" lengthAdjust="spacing" textLength="111.1592" x="27" y="376.4089">delete_cuisine()</text></g><!--class Restaurant--><g class="entity" data-entity="Restaurant" data-source-line="21" data-uid="ent0004" id="entity_Restaurant"><rect fill="#F1F1F1" height="145.7813" rx="2.5" ry="2.5" style="stroke:#181818;stroke-width:0.5;" width="146.4971" x="539.05" y="7"/><ellipse cx="570.8006" cy="23" fill="#ADD1B2" rx="11" ry="11" style="stroke:#181818;stroke-width:1;"/><path d="M573.7694,28.6406 Q573.1913,28.9375 572.5506,29.0781 Q571.91,29.2344 571.2069,29.2344 Q568.7069,29.2344 567.3788,27.5938 Q566.0663,25.9375 566.0663,22.8125 Q566.0663,19.6875 567.3788,18.0313 Q568.7069,16.375 571.2069,16.375 Q571.91,16.375 572.5506,16.5313 Q573.2069,16.6875 573.7694,16.9844 L573.7694,19.7031 Q573.1444,19.125 572.5506,18.8594 Q571.9569,18.5781 571.3319,18.5781 Q569.9881,18.5781 569.3006,19.6563 Q568.6131,20.7188 568.6131,22.8125 Q568.6131,24.9063 569.3006,25.9844 Q569.9881,27.0469 571.3319,27.0469 Q571.9569,27.0469 572.5506,26.7813 Q573.1444,26.5 573.7694,25.9219 L573.7694,28.6406 Z " fill="#000000"/><text fill="#000000" font-family="sans-serif" font-size="14" lengthAdjust="spacing" textLength="77.2734" x="588.523" y="27.8467">Restaurant</text><line style="stroke:#181818;stroke-width:0.5;" x1="540.05" x2="684.5471" y1="39" y2="39"/><ellipse cx="550.05" cy="52.6484" fill="none" rx="3" ry="3" style="stroke:#038048;stroke-width:1;"/><text fill="#000000" font-family="sans-serif" font-size="14" lengthAdjust="spacing" textLength="120.4971" x="559.05" y="55.9951">restaurant_id: int</text><ellipse cx="550.05" cy="68.9453" fill="none" rx="3" ry="3" style="stroke:#038048;stroke-width:1;"/><text fill="#000000" font-family="sans-serif" font-size="14" lengthAdjust="spacing" textLength="77.7314" x="559.05" y="72.292">user_id: int</text><ellipse cx="550.05" cy="85.2422" fill="none" rx="3" ry="3" style="stroke:#038048;stroke-width:1;"/><text fill="#000000" font-family="sans-serif" font-size="14" lengthAdjust="spacing" textLength="102.5049" x="559.05" y="88.5889">address_id: int</text><line style="stroke:#181818;stroke-width:0.5;" x1="540.05" x2="684.5471" y1="95.8906" y2="95.8906"/><ellipse cx="550.05" cy="109.5391" fill="#84BE84" rx="3" ry="3" style="stroke:#038048;stroke-width:1;"/><text fill="#000000" font-family="sans-serif" font-size="14" lengthAdjust="spacing" textLength="110.2705" x="559.05" y="112.8857">update_status()</text><ellipse cx="550.05" cy="125.8359" fill="#84BE84" rx="3" ry="3" style="stroke:#038048;stroke-width:1;"/><text fill="#000000" font-family="sans-serif" font-size="14" lengthAdjust="spacing" textLength="75.2227" x="559.05" y="129.1826">add_food()</text><ellipse cx="550.05" cy="142.1328" fill="#84BE84" rx="3" ry="3" style="stroke:#038048;stroke-width:1;"/><text fill="#000000" font-family="sans-serif" font-size="14" lengthAdjust="spacing" textLength="95.0332" x="559.05" y="145.4795">view_orders()</text></g><!--class WorkingTime--><g class="entity" data-entity="WorkingTime" data-source-line="32" data-uid="ent0005" id="entity_WorkingTime"><rect fill="#F1F1F1" height="113.1875" rx="2.5" ry="2.5" style="stroke:#181818;stroke-width:0.5;" width="167.3535" x="202.62" y="278.67"/><ellipse cx="236.8531" cy="294.67" fill="#ADD1B2" rx="11" ry="11" style="stroke:#181818;stroke-width:1;"/><path d="M239.8219,300.3106 Q239.2437,300.6075 238.6031,300.7481 Q237.9625,300.9044 237.2594,300.9044 Q234.7594,300.9044 233.4312,299.2637 Q232.1187,297.6075 232.1187,294.4825 Q232.1187,291.3575 233.4312,289.7012 Q234.7594,288.045 237.2594,288.045 Q237.9625,288.045 238.6031,288.2012 Q239.2594,288.3575 239.8219,288.6544 L239.8219,291.3731 Q239.1969,290.795 238.6031,290.5294 Q238.0094,290.2481 237.3844,290.2481 Q236.0406,290.2481 235.3531,291.3262 Q234.6656,292.3887 234.6656,294.4825 Q234.6656,296.5762 235.3531,297.6544 Q236.0406,298.7169 237.3844,298.7169 Q238.0094,298.7169 238.6031,298.4512 Q239.1969,298.17 239.8219,297.5919 L239.8219,300.3106 Z " fill="#000000"/><text fill="#000000" font-family="sans-serif" font-size="14" lengthAdjust="spacing" textLength="92.6133" x="255.1271" y="299.5167">WorkingTime</text><line style="stroke:#181818;stroke-width:0.5;" x1="203.62" x2="368.9735" y1="310.67" y2="310.67"/><ellipse cx="213.62" cy="324.3184" fill="none" rx="3" ry="3" style="stroke:#038048;stroke-width:1;"/><text fill="#000000" font-family="sans-serif" font-size="14" lengthAdjust="spacing" textLength="141.3535" x="222.62" y="327.6651">working_time_id: int</text><line style="stroke:#181818;stroke-width:0.5;" x1="203.62" x2="368.9735" y1="334.9669" y2="334.9669"/><ellipse cx="213.62" cy="348.6153" fill="#84BE84" rx="3" ry="3" style="stroke:#038048;stroke-width:1;"/><text fill="#000000" font-family="sans-serif" font-size="14" lengthAdjust="spacing" textLength="75.9063" x="222.62" y="351.962">add_time()</text><ellipse cx="213.62" cy="364.9122" fill="#84BE84" rx="3" ry="3" style="stroke:#038048;stroke-width:1;"/><text fill="#000000" font-family="sans-serif" font-size="14" lengthAdjust="spacing" textLength="93.6592" x="222.62" y="368.2589">delete_time()</text><ellipse cx="213.62" cy="381.2091" fill="#84BE84" rx="3" ry="3" style="stroke:#038048;stroke-width:1;"/><text fill="#000000" font-family="sans-serif" font-size="14" lengthAdjust="spacing" textLength="59.1172" x="222.62" y="384.5557">modify()</text></g><!--class Food--><g class="entity" data-entity="Food" data-source-line="40" data-uid="ent0006" id="entity_Food"><rect fill="#F1F1F1" height="194.6719" rx="2.5" ry="2.5" style="stroke:#181818;stroke-width:0.5;" width="195.8594" x="1087.37" y="237.93"/><ellipse cx="1164.0145" cy="253.93" fill="#ADD1B2" rx="11" ry="11" style="stroke:#181818;stroke-width:1;"/><path d="M1166.9833,259.5706 Q1166.4052,259.8675 1165.7645,260.0081 Q1165.1239,260.1644 1164.4208,260.1644 Q1161.9208,260.1644 1160.5927,258.5238 Q1159.2802,256.8675 1159.2802,253.7425 Q1159.2802,250.6175 1160.5927,248.9613 Q1161.9208,247.305 1164.4208,247.305 Q1165.1239,247.305 1165.7645,247.4613 Q1166.4208,247.6175 1166.9833,247.9144 L1166.9833,250.6331 Q1166.3583,250.055 1165.7645,249.7894 Q1165.1708,249.5081 1164.5458,249.5081 Q1163.202,249.5081 1162.5145,250.5863 Q1161.827,251.6488 1161.827,253.7425 Q1161.827,255.8363 1162.5145,256.9144 Q1163.202,257.9769 1164.5458,257.9769 Q1165.1708,257.9769 1165.7645,257.7113 Q1166.3583,257.43 1166.9833,256.8519 L1166.9833,259.5706 Z " fill="#000000"/><text fill="#000000" font-family="sans-serif" font-size="14" lengthAdjust="spacing" textLength="34.0703" x="1184.5145" y="258.7767">Food</text><line style="stroke:#181818;stroke-width:0.5;" x1="1088.37" x2="1282.2294" y1="269.93" y2="269.93"/><ellipse cx="1098.37" cy="283.5784" fill="none" rx="3" ry="3" style="stroke:#038048;stroke-width:1;"/><text fill="#000000" font-family="sans-serif" font-size="14" lengthAdjust="spacing" textLength="78.1416" x="1107.37" y="286.9251">food_id: int</text><ellipse cx="1098.37" cy="299.8753" fill="none" rx="3" ry="3" style="stroke:#038048;stroke-width:1;"/><text fill="#000000" font-family="sans-serif" font-size="14" lengthAdjust="spacing" textLength="134.5996" x="1107.37" y="303.222">cuisine_type_id: int</text><ellipse cx="1098.37" cy="316.1722" fill="none" rx="3" ry="3" style="stroke:#038048;stroke-width:1;"/><text fill="#000000" font-family="sans-serif" font-size="14" lengthAdjust="spacing" textLength="120.4971" x="1107.37" y="319.5189">restaurant_id: int</text><ellipse cx="1098.37" cy="332.4691" fill="none" rx="3" ry="3" style="stroke:#038048;stroke-width:1;"/><text fill="#000000" font-family="sans-serif" font-size="14" lengthAdjust="spacing" textLength="169.8594" x="1107.37" y="335.8157">preparation_time: string</text><line style="stroke:#181818;stroke-width:0.5;" x1="1088.37" x2="1282.2294" y1="343.1175" y2="343.1175"/><ellipse cx="1098.37" cy="356.7659" fill="#84BE84" rx="3" ry="3" style="stroke:#038048;stroke-width:1;"/><text fill="#000000" font-family="sans-serif" font-size="14" lengthAdjust="spacing" textLength="75.2227" x="1107.37" y="360.1126">add_food()</text><ellipse cx="1098.37" cy="373.0628" fill="#84BE84" rx="3" ry="3" style="stroke:#038048;stroke-width:1;"/><text fill="#000000" font-family="sans-serif" font-size="14" lengthAdjust="spacing" textLength="97.0635" x="1107.37" y="376.4095">modify_food()</text><ellipse cx="1098.37" cy="389.3597" fill="#84BE84" rx="3" ry="3" style="stroke:#038048;stroke-width:1;"/><text fill="#000000" font-family="sans-serif" font-size="14" lengthAdjust="spacing" textLength="92.9756" x="1107.37" y="392.7064">delete_food()</text><ellipse cx="1098.37" cy="405.6566" fill="#84BE84" rx="3" ry="3" style="stroke:#038048;stroke-width:1;"/><text fill="#000000" font-family="sans-serif" font-size="14" lengthAdjust="spacing" textLength="102.0947" x="1107.37" y="409.0032">update_price()</text><ellipse cx="1098.37" cy="421.9534" fill="#84BE84" rx="3" ry="3" style="stroke:#038048;stroke-width:1;"/><text fill="#000000" font-family="sans-serif" font-size="14" lengthAdjust="spacing" textLength="104.4053" x="1107.37" y="425.3001">update_stock()</text></g><!--class FoodCategory--><g class="entity" data-entity="FoodCategory" data-source-line="53" data-uid="ent0007" id="entity_FoodCategory"><rect fill="#F1F1F1" height="96.8906" rx="2.5" ry="2.5" style="stroke:#181818;stroke-width:0.5;" width="187.8477" x="1091.38" y="517.75"/><ellipse cx="1132.4022" cy="533.75" fill="#ADD1B2" rx="11" ry="11" style="stroke:#181818;stroke-width:1;"/><path d="M1135.371,539.3906 Q1134.7928,539.6875 1134.1522,539.8281 Q1133.5116,539.9844 1132.8085,539.9844 Q1130.3085,539.9844 1128.9803,538.3438 Q1127.6678,536.6875 1127.6678,533.5625 Q1127.6678,530.4375 1128.9803,528.7813 Q1130.3085,527.125 1132.8085,527.125 Q1133.5116,527.125 1134.1522,527.2813 Q1134.8085,527.4375 1135.371,527.7344 L1135.371,530.4531 Q1134.746,529.875 1134.1522,529.6094 Q1133.5585,529.3281 1132.9335,529.3281 Q1131.5897,529.3281 1130.9022,530.4063 Q1130.2147,531.4688 1130.2147,533.5625 Q1130.2147,535.6563 1130.9022,536.7344 Q1131.5897,537.7969 1132.9335,537.7969 Q1133.5585,537.7969 1134.1522,537.5313 Q1134.746,537.25 1135.371,536.6719 L1135.371,539.3906 Z " fill="#000000"/><text fill="#000000" font-family="sans-serif" font-size="14" lengthAdjust="spacing" textLength="98.0205" x="1152.1849" y="538.5967">FoodCategory</text><line style="stroke:#181818;stroke-width:0.5;" x1="1092.38" x2="1278.2277" y1="549.75" y2="549.75"/><ellipse cx="1102.38" cy="563.3984" fill="none" rx="3" ry="3" style="stroke:#038048;stroke-width:1;"/><text fill="#000000" font-family="sans-serif" font-size="14" lengthAdjust="spacing" textLength="147.0137" x="1111.38" y="566.7451">food_category_id: int</text><line style="stroke:#181818;stroke-width:0.5;" x1="1092.38" x2="1278.2277" y1="574.0469" y2="574.0469"/><ellipse cx="1102.38" cy="587.6953" fill="#84BE84" rx="3" ry="3" style="stroke:#038048;stroke-width:1;"/><text fill="#000000" font-family="sans-serif" font-size="14" lengthAdjust="spacing" textLength="139.1729" x="1111.38" y="591.042">add_foodCategory()</text><ellipse cx="1102.38" cy="603.9922" fill="#84BE84" rx="3" ry="3" style="stroke:#038048;stroke-width:1;"/><text fill="#000000" font-family="sans-serif" font-size="14" lengthAdjust="spacing" textLength="161.8477" x="1111.38" y="607.3389">delete_food_category()</text></g><!--class Menu--><g class="entity" data-entity="Menu" data-source-line="60" data-uid="ent0008" id="entity_Menu"><rect fill="#F1F1F1" height="145.7813" rx="2.5" ry="2.5" style="stroke:#181818;stroke-width:0.5;" width="173.0684" x="1104.77" y="7"/><ellipse cx="1167.8349" cy="23" fill="#ADD1B2" rx="11" ry="11" style="stroke:#181818;stroke-width:1;"/><path d="M1170.8037,28.6406 Q1170.2256,28.9375 1169.5849,29.0781 Q1168.9443,29.2344 1168.2412,29.2344 Q1165.7412,29.2344 1164.4131,27.5938 Q1163.1006,25.9375 1163.1006,22.8125 Q1163.1006,19.6875 1164.4131,18.0313 Q1165.7412,16.375 1168.2412,16.375 Q1168.9443,16.375 1169.5849,16.5313 Q1170.2412,16.6875 1170.8037,16.9844 L1170.8037,19.7031 Q1170.1787,19.125 1169.5849,18.8594 Q1168.9912,18.5781 1168.3662,18.5781 Q1167.0224,18.5781 1166.3349,19.6563 Q1165.6474,20.7188 1165.6474,22.8125 Q1165.6474,24.9063 1166.3349,25.9844 Q1167.0224,27.0469 1168.3662,27.0469 Q1168.9912,27.0469 1169.5849,26.7813 Q1170.1787,26.5 1170.8037,25.9219 L1170.8037,28.6406 Z " fill="#000000"/><text fill="#000000" font-family="sans-serif" font-size="14" lengthAdjust="spacing" textLength="38.4385" x="1188.3349" y="27.8467">Menu</text><line style="stroke:#181818;stroke-width:0.5;" x1="1105.77" x2="1276.8384" y1="39" y2="39"/><ellipse cx="1115.77" cy="52.6484" fill="none" rx="3" ry="3" style="stroke:#038048;stroke-width:1;"/><text fill="#000000" font-family="sans-serif" font-size="14" lengthAdjust="spacing" textLength="87.1924" x="1124.77" y="55.9951">menu_id: int</text><ellipse cx="1115.77" cy="68.9453" fill="none" rx="3" ry="3" style="stroke:#038048;stroke-width:1;"/><text fill="#000000" font-family="sans-serif" font-size="14" lengthAdjust="spacing" textLength="120.4971" x="1124.77" y="72.292">restaurant_id: int</text><ellipse cx="1115.77" cy="85.2422" fill="none" rx="3" ry="3" style="stroke:#038048;stroke-width:1;"/><text fill="#000000" font-family="sans-serif" font-size="14" lengthAdjust="spacing" textLength="147.0684" x="1124.77" y="88.5889">created_at: datetime</text><line style="stroke:#181818;stroke-width:0.5;" x1="1105.77" x2="1276.8384" y1="95.8906" y2="95.8906"/><ellipse cx="1115.77" cy="109.5391" fill="#84BE84" rx="3" ry="3" style="stroke:#038048;stroke-width:1;"/><text fill="#000000" font-family="sans-serif" font-size="14" lengthAdjust="spacing" textLength="84.2734" x="1124.77" y="112.8857">add_menu()</text><ellipse cx="1115.77" cy="125.8359" fill="#84BE84" rx="3" ry="3" style="stroke:#038048;stroke-width:1;"/><text fill="#000000" font-family="sans-serif" font-size="14" lengthAdjust="spacing" textLength="102.0264" x="1124.77" y="129.1826">delete_menu()</text><ellipse cx="1115.77" cy="142.1328" fill="#84BE84" rx="3" ry="3" style="stroke:#038048;stroke-width:1;"/><text fill="#000000" font-family="sans-serif" font-size="14" lengthAdjust="spacing" textLength="106.1143" x="1124.77" y="145.4795">modify_menu()</text></g><!--class BankInfo--><g class="entity" data-entity="BankInfo" data-source-line="76" data-uid="ent0009" id="entity_BankInfo"><rect fill="#F1F1F1" height="210.9688" rx="2.5" ry="2.5" style="stroke:#181818;stroke-width:0.5;" width="192.7695" x="627.92" y="229.78"/><ellipse cx="689.2247" cy="245.78" fill="#ADD1B2" rx="11" ry="11" style="stroke:#181818;stroke-width:1;"/><path d="M692.1934,251.4206 Q691.6153,251.7175 690.9747,251.8581 Q690.3341,252.0144 689.6309,252.0144 Q687.1309,252.0144 685.8028,250.3737 Q684.4903,248.7175 684.4903,245.5925 Q684.4903,242.4675 685.8028,240.8112 Q687.1309,239.155 689.6309,239.155 Q690.3341,239.155 690.9747,239.3112 Q691.6309,239.4675 692.1934,239.7644 L692.1934,242.4831 Q691.5684,241.905 690.9747,241.6394 Q690.3809,241.3581 689.7559,241.3581 Q688.4122,241.3581 687.7247,242.4362 Q687.0372,243.4987 687.0372,245.5925 Q687.0372,247.6862 687.7247,248.7644 Q688.4122,249.8269 689.7559,249.8269 Q690.3809,249.8269 690.9747,249.5612 Q691.5684,249.28 692.1934,248.7019 L692.1934,251.4206 Z " fill="#000000"/><text fill="#000000" font-family="sans-serif" font-size="14" lengthAdjust="spacing" textLength="61.6602" x="709.7247" y="250.6267">BankInfo</text><line style="stroke:#181818;stroke-width:0.5;" x1="628.92" x2="819.6895" y1="261.78" y2="261.78"/><ellipse cx="638.92" cy="275.4284" fill="none" rx="3" ry="3" style="stroke:#038048;stroke-width:1;"/><text fill="#000000" font-family="sans-serif" font-size="14" lengthAdjust="spacing" textLength="114.8984" x="647.92" y="278.7751">bank_info_id: int</text><ellipse cx="638.92" cy="291.7253" fill="none" rx="3" ry="3" style="stroke:#038048;stroke-width:1;"/><text fill="#000000" font-family="sans-serif" font-size="14" lengthAdjust="spacing" textLength="120.4971" x="647.92" y="295.072">restaurant_id: int</text><ellipse cx="638.92" cy="308.0222" fill="none" rx="3" ry="3" style="stroke:#038048;stroke-width:1;"/><text fill="#000000" font-family="sans-serif" font-size="14" lengthAdjust="spacing" textLength="130.5049" x="647.92" y="311.3689">bank_name: string</text><ellipse cx="638.92" cy="324.3191" fill="none" rx="3" ry="3" style="stroke:#038048;stroke-width:1;"/><text fill="#000000" font-family="sans-serif" font-size="14" lengthAdjust="spacing" textLength="166.7695" x="647.92" y="327.6657">account_number: string</text><ellipse cx="638.92" cy="340.6159" fill="none" rx="3" ry="3" style="stroke:#038048;stroke-width:1;"/><text fill="#000000" font-family="sans-serif" font-size="14" lengthAdjust="spacing" textLength="161.3281" x="647.92" y="343.9626">routing_number: string</text><ellipse cx="638.92" cy="356.9128" fill="none" rx="3" ry="3" style="stroke:#038048;stroke-width:1;"/><text fill="#000000" font-family="sans-serif" font-size="14" lengthAdjust="spacing" textLength="143.4043" x="647.92" y="360.2595">account_type: string</text><ellipse cx="638.92" cy="373.2097" fill="none" rx="3" ry="3" style="stroke:#038048;stroke-width:1;"/><text fill="#000000" font-family="sans-serif" font-size="14" lengthAdjust="spacing" textLength="79.584" x="647.92" y="376.5564">iban: string</text><line style="stroke:#181818;stroke-width:0.5;" x1="628.92" x2="819.6895" y1="383.8581" y2="383.8581"/><ellipse cx="638.92" cy="397.5066" fill="#84BE84" rx="3" ry="3" style="stroke:#038048;stroke-width:1;"/><text fill="#000000" font-family="sans-serif" font-size="14" lengthAdjust="spacing" textLength="111.9795" x="647.92" y="400.8532">add_bank_info()</text><ellipse cx="638.92" cy="413.8034" fill="#84BE84" rx="3" ry="3" style="stroke:#038048;stroke-width:1;"/><text fill="#000000" font-family="sans-serif" font-size="14" lengthAdjust="spacing" textLength="134.9551" x="647.92" y="417.1501">update_bank_info()</text><ellipse cx="638.92" cy="430.1003" fill="#84BE84" rx="3" ry="3" style="stroke:#038048;stroke-width:1;"/><text fill="#000000" font-family="sans-serif" font-size="14" lengthAdjust="spacing" textLength="129.7324" x="647.92" y="433.447">delete_bank_info()</text></g><!--class RestaurantDocs--><g class="entity" data-entity="RestaurantDocs" data-source-line="90" data-uid="ent0010" id="entity_RestaurantDocs"><rect fill="#F1F1F1" height="178.375" rx="2.5" ry="2.5" style="stroke:#181818;stroke-width:0.5;" width="184.6143" x="855.99" y="246.08"/><ellipse cx="889.4418" cy="262.08" fill="#ADD1B2" rx="11" ry="11" style="stroke:#181818;stroke-width:1;"/><path d="M892.4105,267.7206 Q891.8324,268.0175 891.1918,268.1581 Q890.5511,268.3144 889.848,268.3144 Q887.348,268.3144 886.0199,266.6738 Q884.7074,265.0175 884.7074,261.8925 Q884.7074,258.7675 886.0199,257.1113 Q887.348,255.455 889.848,255.455 Q890.5511,255.455 891.1918,255.6112 Q891.848,255.7675 892.4105,256.0644 L892.4105,258.7831 Q891.7855,258.205 891.1918,257.9394 Q890.598,257.6581 889.973,257.6581 Q888.6293,257.6581 887.9418,258.7363 Q887.2543,259.7988 887.2543,261.8925 Q887.2543,263.9863 887.9418,265.0644 Q888.6293,266.1269 889.973,266.1269 Q890.598,266.1269 891.1918,265.8613 Q891.7855,265.58 892.4105,265.0019 L892.4105,267.7206 Z " fill="#000000"/><text fill="#000000" font-family="sans-serif" font-size="14" lengthAdjust="spacing" textLength="111.6104" x="907.5421" y="266.9267">RestaurantDocs</text><line style="stroke:#181818;stroke-width:0.5;" x1="856.99" x2="1039.6043" y1="278.08" y2="278.08"/><ellipse cx="866.99" cy="291.7284" fill="none" rx="3" ry="3" style="stroke:#038048;stroke-width:1;"/><text fill="#000000" font-family="sans-serif" font-size="14" lengthAdjust="spacing" textLength="72.3447" x="875.99" y="295.0751">doc_id: int</text><ellipse cx="866.99" cy="308.0253" fill="none" rx="3" ry="3" style="stroke:#038048;stroke-width:1;"/><text fill="#000000" font-family="sans-serif" font-size="14" lengthAdjust="spacing" textLength="120.4971" x="875.99" y="311.372">restaurant_id: int</text><ellipse cx="866.99" cy="324.3222" fill="none" rx="3" ry="3" style="stroke:#038048;stroke-width:1;"/><text fill="#000000" font-family="sans-serif" font-size="14" lengthAdjust="spacing" textLength="112.7793" x="875.99" y="327.6689">doc_type: string</text><ellipse cx="866.99" cy="340.6191" fill="none" rx="3" ry="3" style="stroke:#038048;stroke-width:1;"/><text fill="#000000" font-family="sans-serif" font-size="14" lengthAdjust="spacing" textLength="100.0234" x="875.99" y="343.9657">doc_url: string</text><ellipse cx="866.99" cy="356.9159" fill="none" rx="3" ry="3" style="stroke:#038048;stroke-width:1;"/><text fill="#000000" font-family="sans-serif" font-size="14" lengthAdjust="spacing" textLength="158.6143" x="875.99" y="360.2626">uploaded_at: datetime</text><line style="stroke:#181818;stroke-width:0.5;" x1="856.99" x2="1039.6043" y1="367.5644" y2="367.5644"/><ellipse cx="866.99" cy="381.2128" fill="#84BE84" rx="3" ry="3" style="stroke:#038048;stroke-width:1;"/><text fill="#000000" font-family="sans-serif" font-size="14" lengthAdjust="spacing" textLength="136.2402" x="875.99" y="384.5595">upload_document()</text><ellipse cx="866.99" cy="397.5097" fill="#84BE84" rx="3" ry="3" style="stroke:#038048;stroke-width:1;"/><text fill="#000000" font-family="sans-serif" font-size="14" lengthAdjust="spacing" textLength="132.665" x="875.99" y="400.8564">delete_document()</text><ellipse cx="866.99" cy="413.8066" fill="#84BE84" rx="3" ry="3" style="stroke:#038048;stroke-width:1;"/><text fill="#000000" font-family="sans-serif" font-size="14" lengthAdjust="spacing" textLength="118.8428" x="875.99" y="417.1532">get_documents()</text></g><!--link Restaurant to Addresses--><g class="link" data-entity-1="Restaurant" data-entity-2="Addresses" data-source-line="106" data-uid="lnk11" id="link_Restaurant_Addresses"><path codeLine="106" d="M580.07,153.16 C564.87,187.24 546.78,227.81 531.57,261.9" fill="none" id="Restaurant-Addresses" style="stroke:#181818;stroke-width:1;"/><text fill="#000000" font-family="sans-serif" font-size="13" lengthAdjust="spacing" textLength="78.4697" x="567.3" y="195.8469">has address</text><text fill="#000000" font-family="sans-serif" font-size="13" lengthAdjust="spacing" textLength="24.1909" x="551.8636" y="172.9316">one</text><text fill="#000000" font-family="sans-serif" font-size="13" lengthAdjust="spacing" textLength="24.1909" x="509.5114" y="251.2662">one</text></g><!--link Restaurant to CuisineTypes--><g class="link" data-entity-1="Restaurant" data-entity-2="CuisineTypes" data-source-line="107" data-uid="lnk12" id="link_Restaurant_CuisineTypes"><path codeLine="107" d="M538.94,93.45 C448.96,111.62 294.93,151.95 185.3,229.78 C162.99,245.62 141.76,267.14 124.8,286.53" fill="none" id="Restaurant-CuisineTypes" style="stroke:#181818;stroke-width:1;"/><text fill="#000000" font-family="sans-serif" font-size="13" lengthAdjust="spacing" textLength="119.3042" x="260.3" y="195.8469">RestaurantCuisine</text><text fill="#000000" font-family="sans-serif" font-size="13" lengthAdjust="spacing" textLength="36.5625" x="494.5438" y="91.0816">many</text><text fill="#000000" font-family="sans-serif" font-size="13" lengthAdjust="spacing" textLength="36.5625" x="91.5818" y="275.6981">many</text></g><!--link Restaurant to Food--><g class="link" data-entity-1="Restaurant" data-entity-2="Food" data-source-line="108" data-uid="lnk13" id="link_Restaurant_Food"><path codeLine="108" d="M685.67,95.61 C777.38,116.14 937.02,159.03 1058.3,229.78 C1067.92,235.39 1077.55,241.72 1086.98,248.41" fill="none" id="Restaurant-Food" style="stroke:#181818;stroke-width:1;"/><text fill="#000000" font-family="sans-serif" font-size="13" lengthAdjust="spacing" textLength="67.3296" x="990.3" y="195.8469">MenuFood</text><text fill="#000000" font-family="sans-serif" font-size="13" lengthAdjust="spacing" textLength="36.5625" x="693.5464" y="93.389">many</text><text fill="#000000" font-family="sans-serif" font-size="13" lengthAdjust="spacing" textLength="36.5625" x="1047.2275" y="234.9049">many</text></g><!--link Food to FoodCategory--><g class="link" data-entity-1="Food" data-entity-2="FoodCategory" data-source-line="109" data-uid="lnk14" id="link_Food_FoodCategory"><path codeLine="109" d="M1115.64,432.74 C1109.39,445.06 1104.03,457.88 1100.3,470.75 C1095.27,488.12 1102.18,504.06 1113.9,517.69" fill="none" id="Food-FoodCategory" style="stroke:#181818;stroke-width:1;"/><text fill="#000000" font-family="sans-serif" font-size="13" lengthAdjust="spacing" textLength="122.6558" x="1101.3" y="483.8169">FoodFoodCategory</text><text fill="#000000" font-family="sans-serif" font-size="13" lengthAdjust="spacing" textLength="36.5625" x="1073.2231" y="452.5208">many</text><text fill="#000000" font-family="sans-serif" font-size="13" lengthAdjust="spacing" textLength="36.5625" x="1064.8101" y="506.5409">many</text></g><!--link Food to FoodCategory--><g class="link" data-entity-1="Food" data-entity-2="FoodCategory" data-source-line="111" data-uid="lnk16" id="link_Food_FoodCategory"><path codeLine="111" d="M1228.51,433.06 C1232.14,451.19 1232.89,470.02 1228.3,487.75 C1225.68,497.87 1221.41,508.08 1216.57,517.62" fill="none" id="Food-FoodCategory-1" style="stroke:#181818;stroke-width:1;"/><text fill="#000000" font-family="sans-serif" font-size="13" lengthAdjust="spacing" textLength="122.6558" x="1231.3" y="483.8169">FoodFoodCategory</text><text fill="#000000" font-family="sans-serif" font-size="13" lengthAdjust="spacing" textLength="36.5625" x="1194.3024" y="452.5351">many</text><text fill="#000000" font-family="sans-serif" font-size="13" lengthAdjust="spacing" textLength="36.5625" x="1182.4751" y="506.8106">many</text></g><!--link Menu to Food--><g class="link" data-entity-1="Menu" data-entity-2="Food" data-source-line="110" data-uid="lnk15" id="link_Menu_Food"><path codeLine="110" d="M1189.59,153.16 C1188.96,179.49 1188.25,209.69 1187.58,237.78" fill="none" id="Menu-Food" style="stroke:#181818;stroke-width:1;"/><text fill="#000000" font-family="sans-serif" font-size="13" lengthAdjust="spacing" textLength="67.3296" x="1189.3" y="195.8469">MenuFood</text><text fill="#000000" font-family="sans-serif" font-size="13" lengthAdjust="spacing" textLength="36.5625" x="1151.7378" y="172.9316">many</text><text fill="#000000" font-family="sans-serif" font-size="13" lengthAdjust="spacing" textLength="36.5625" x="1150.398" y="226.814">many</text></g><!--link Restaurant to WorkingTime--><g class="link" data-entity-1="Restaurant" data-entity-2="WorkingTime" data-source-line="112" data-uid="lnk17" id="link_Restaurant_WorkingTime"><path codeLine="112" d="M538.93,120.75 C507.99,138.54 472.09,160.48 441.3,182.78 C415.53,201.44 410.38,207.88 387.3,229.78 C371.1,245.15 354.04,262.38 338.63,278.35" fill="none" id="Restaurant-WorkingTime" style="stroke:#181818;stroke-width:1;"/><text fill="#000000" font-family="sans-serif" font-size="13" lengthAdjust="spacing" textLength="112.1758" x="442.3" y="195.8469">has working time</text><text fill="#000000" font-family="sans-serif" font-size="13" lengthAdjust="spacing" textLength="36.5625" x="494.5329" y="120.8983">many</text><text fill="#000000" font-family="sans-serif" font-size="13" lengthAdjust="spacing" textLength="36.5625" x="306.8486" y="267.5746">many</text></g><!--link Restaurant to BankInfo--><g class="link" data-entity-1="Restaurant" data-entity-2="BankInfo" data-source-line="113" data-uid="lnk18" id="link_Restaurant_BankInfo"><path codeLine="113" d="M644.24,153.16 C654.72,176.85 666.58,203.69 677.9,229.3" fill="none" id="Restaurant-BankInfo" style="stroke:#181818;stroke-width:1;"/><text fill="#000000" font-family="sans-serif" font-size="13" lengthAdjust="spacing" textLength="138.4868" x="663.3" y="195.8469">has bank information</text><text fill="#000000" font-family="sans-serif" font-size="13" lengthAdjust="spacing" textLength="24.1909" x="622.1498" y="172.9316">one</text><text fill="#000000" font-family="sans-serif" font-size="13" lengthAdjust="spacing" textLength="24.1909" x="649.9823" y="218.748">one</text></g><!--link Restaurant to RestaurantDocs--><g class="link" data-entity-1="Restaurant" data-entity-2="RestaurantDocs" data-source-line="114" data-uid="lnk19" id="link_Restaurant_RestaurantDocs"><path codeLine="114" d="M685.58,110.97 C724.6,128.82 772.24,153.63 810.3,182.78 C834.02,200.95 857.04,223.51 877.25,245.61" fill="none" id="Restaurant-RestaurantDocs" style="stroke:#181818;stroke-width:1;"/><text fill="#000000" font-family="sans-serif" font-size="13" lengthAdjust="spacing" textLength="99.4741" x="828.3" y="195.8469">has documents</text><text fill="#000000" font-family="sans-serif" font-size="13" lengthAdjust="spacing" textLength="36.5625" x="693.4487" y="110.069">many</text><text fill="#000000" font-family="sans-serif" font-size="13" lengthAdjust="spacing" textLength="36.5625" x="834.1765" y="234.9399">many</text></g><!--SRC=[jPNFRjmW4CRlVWhaoxQgyWA-jQagzT1B5Ab7Yy2iWzO6Yp-9Lb7UlO311inQU-aU8lit7kRZOvYSq7TA9IW52f4HAzNulmdzQ93zVKDu8JsZ7M9SRxGFaIzV0vi4PUVh3W-WTup221ggdmv232Fq4vvLZsTcOv-D_PtGes6ASNY-peNcB11bamNssjAAzX0k1MtuqvLy0gMnaPZhh622OpcvegAOKI3tzIkEcfbYgy0keytcYDDw5eAku8t1Uoya1Qc2DIVqLyWBuyCpco3JcV8ez7rXlRQmuel3fIaPMmuv6lJBIijAUX1hEU55ZODZkMdXB6764cickDVI8QMbtSCjYq8VPYni9MF1yLao0YLKMf1Bkij7ImSXhxlThe5iroJGYiNd9AccRysDvVy0DrbP3sAvoRxSwoIHODUsDrTto6tJkPaeSqkLYZ8Md0tCtylbRlx0_FARdqKcSuLHwei5FRFaNhq-WUFzaHCYZFsQc-a5P16KmcZNuTLWp7JzLuIOhLPfhLLqsIBxGB0i3HHZvASWwiOeyQ7e51NaNe_SfvNTE6paM50pZmBJUWSiiTuc6dl0kjpLZhjX7Q7QnlGJZFwggbSsAqkIOTaA3YrwU0WFs_-Q3hMlMCN1s6Ov4-RN9MbvogPzbnWO0eV9VZnr_WAvnyQ_LxzQhtNdNrFK-FltdzO-Kf_Eys1P6EV8dMDxuFLw5qEUwr7aUbHE_hIEFI-wDAon7dxx3m00]--></g></svg>