<svg xmlns="http://www.w3.org/2000/svg" xmlns:xlink="http://www.w3.org/1999/xlink" contentStyleType="text/css" data-diagram-type="SEQUENCE" height="335px" preserveAspectRatio="none" style="width:758px;height:335px;background:#FFFFFF;" version="1.1" viewBox="0 0 758 335" width="758px" zoomAndPan="magnify"><title>Restaurant Add Food to Menu</title><defs/><g><text fill="#000000" font-family="sans-serif" font-size="14" font-weight="bold" lengthAdjust="spacing" textLength="236.5918" x="262.4668" y="27.9951">Restaurant Add Food to Menu</text><g><title>Restaurant</title><rect fill="#000000" fill-opacity="0.00000" height="136.5313" width="8" x="42.6367" y="118.5938"/><line style="stroke:#181818;stroke-width:0.5;stroke-dasharray:5,5;" x1="46" x2="46" y1="118.5938" y2="255.125"/></g><g><title>API</title><rect fill="#000000" fill-opacity="0.00000" height="136.5313" width="8" x="453.6597" y="118.5938"/><line style="stroke:#181818;stroke-width:0.5;stroke-dasharray:5,5;" x1="457.6597" x2="457.6597" y1="118.5938" y2="255.125"/></g><g><title>Database</title><rect fill="#000000" fill-opacity="0.00000" height="136.5313" width="8" x="717.125" y="118.5938"/><line style="stroke:#181818;stroke-width:0.5;stroke-dasharray:5,5;" x1="720.7246" x2="720.7246" y1="118.5938" y2="255.125"/></g><g class="participant participant-head" data-participant="Restaurant"><text fill="#000000" font-family="sans-serif" font-size="14" lengthAdjust="spacing" textLength="77.2734" x="5" y="115.292">Restaurant</text><ellipse cx="46.6367" cy="50.7969" fill="#E2E2F0" rx="8" ry="8" style="stroke:#181818;stroke-width:0.5;"/><path d="M46.6367,58.7969 L46.6367,85.7969 M33.6367,66.7969 L59.6367,66.7969 M46.6367,85.7969 L33.6367,100.7969 M46.6367,85.7969 L59.6367,100.7969" fill="none" style="stroke:#181818;stroke-width:0.5;"/></g><g class="participant participant-tail" data-participant="Restaurant"><text fill="#000000" font-family="sans-serif" font-size="14" lengthAdjust="spacing" textLength="77.2734" x="5" y="267.1201">Restaurant</text><ellipse cx="46.6367" cy="278.9219" fill="#E2E2F0" rx="8" ry="8" style="stroke:#181818;stroke-width:0.5;"/><path d="M46.6367,286.9219 L46.6367,313.9219 M33.6367,294.9219 L59.6367,294.9219 M46.6367,313.9219 L33.6367,328.9219 M46.6367,313.9219 L59.6367,328.9219" fill="none" style="stroke:#181818;stroke-width:0.5;"/></g><g class="participant participant-head" data-participant="API"><text fill="#000000" font-family="sans-serif" font-size="14" lengthAdjust="spacing" textLength="22.1484" x="443.5854" y="115.292">API</text><ellipse cx="457.6597" cy="86.2969" fill="#E2E2F0" rx="12" ry="12" style="stroke:#181818;stroke-width:0.5;"/><line style="stroke:#181818;stroke-width:0.5;" x1="445.6597" x2="469.6597" y1="100.2969" y2="100.2969"/></g><g class="participant participant-tail" data-participant="API"><text fill="#000000" font-family="sans-serif" font-size="14" lengthAdjust="spacing" textLength="22.1484" x="443.5854" y="267.1201">API</text><ellipse cx="457.6597" cy="286.4219" fill="#E2E2F0" rx="12" ry="12" style="stroke:#181818;stroke-width:0.5;"/><line style="stroke:#181818;stroke-width:0.5;" x1="445.6597" x2="469.6597" y1="300.4219" y2="300.4219"/></g><g class="participant participant-head" data-participant="Database"><text fill="#000000" font-family="sans-serif" font-size="14" lengthAdjust="spacing" textLength="66.8008" x="684.7246" y="115.292">Database</text><ellipse cx="721.125" cy="86.2969" fill="#E2E2F0" rx="12" ry="12" style="stroke:#181818;stroke-width:0.5;"/><line style="stroke:#181818;stroke-width:0.5;" x1="709.125" x2="733.125" y1="100.2969" y2="100.2969"/></g><g class="participant participant-tail" data-participant="Database"><text fill="#000000" font-family="sans-serif" font-size="14" lengthAdjust="spacing" textLength="66.8008" x="684.7246" y="267.1201">Database</text><ellipse cx="721.125" cy="286.4219" fill="#E2E2F0" rx="12" ry="12" style="stroke:#181818;stroke-width:0.5;"/><line style="stroke:#181818;stroke-width:0.5;" x1="709.125" x2="733.125" y1="300.4219" y2="300.4219"/></g><g class="message" data-participant-1="Restaurant" data-participant-2="API"><polygon fill="#181818" points="445.6597,145.7266,455.6597,149.7266,445.6597,153.7266,449.6597,149.7266" style="stroke:#181818;stroke-width:1;"/><line style="stroke:#181818;stroke-width:1;" x1="46.6367" x2="451.6597" y1="149.7266" y2="149.7266"/><text fill="#000000" font-family="sans-serif" font-size="13" lengthAdjust="spacing" textLength="387.0229" x="53.6367" y="144.6606">POST /restaurants/{restaurant_id}/foods (with food details)</text></g><g class="message" data-participant-1="API" data-participant-2="Database"><polygon fill="#181818" points="709.125,174.8594,719.125,178.8594,709.125,182.8594,713.125,178.8594" style="stroke:#181818;stroke-width:1;"/><line style="stroke:#181818;stroke-width:1;" x1="457.6597" x2="715.125" y1="178.8594" y2="178.8594"/><text fill="#000000" font-family="sans-serif" font-size="13" lengthAdjust="spacing" textLength="239.4653" x="464.6597" y="173.7935">Validate Food Data and Add to Menu</text></g><g class="message" data-participant-1="Database" data-participant-2="API"><polygon fill="#181818" points="468.6597,203.9922,458.6597,207.9922,468.6597,211.9922,464.6597,207.9922" style="stroke:#181818;stroke-width:1;"/><line style="stroke:#181818;stroke-width:1;stroke-dasharray:2,2;" x1="462.6597" x2="720.125" y1="207.9922" y2="207.9922"/><text fill="#000000" font-family="sans-serif" font-size="13" lengthAdjust="spacing" textLength="231.7085" x="474.6597" y="202.9263">Return Food Added to Menu Details</text></g><g class="message" data-participant-1="API" data-participant-2="Restaurant"><polygon fill="#181818" points="57.6367,233.125,47.6367,237.125,57.6367,241.125,53.6367,237.125" style="stroke:#181818;stroke-width:1;"/><line style="stroke:#181818;stroke-width:1;stroke-dasharray:2,2;" x1="51.6367" x2="456.6597" y1="237.125" y2="237.125"/><text fill="#000000" font-family="sans-serif" font-size="13" lengthAdjust="spacing" textLength="222.8916" x="63.6367" y="232.0591">Food Added to Menu Confirmation</text></g><!--SRC=[ROwn2i8m48RtFCMDEfJk7OHY4Hp4KiLLJdF5Wvf0SaL4V7SJGre7jylbk___X6KWwCWBZWwDGAqrRApL81PsP4Qby2hM_I2AZB0yeMwtUMnGy8AUbFf9AbOHgQ3T7uvGkkd3bw_vSMRzBllGvs7nOBb1d46J80z-gK90pCdv5PnmO8r2oJ7k0Ot-McVX34EH3JgIqPbq4aYQM6XIKUe9-AnV_SFNrlJixYXipGS0]--></g></svg>