<svg xmlns="http://www.w3.org/2000/svg" xmlns:xlink="http://www.w3.org/1999/xlink" contentStyleType="text/css" data-diagram-type="SEQUENCE" height="335px" preserveAspectRatio="none" style="width:633px;height:335px;background:#FFFFFF;" version="1.1" viewBox="0 0 633 335" width="633px" zoomAndPan="magnify"><title>User Registration</title><defs/><g><text fill="#000000" font-family="sans-serif" font-size="14" font-weight="bold" lengthAdjust="spacing" textLength="138.5234" x="249.1313" y="27.9951">User Registration</text><g><title>User</title><rect fill="#000000" fill-opacity="0.00000" height="136.5313" width="8" x="19.9551" y="118.5938"/><line style="stroke:#181818;stroke-width:0.5;stroke-dasharray:5,5;" x1="23" x2="23" y1="118.5938" y2="255.125"/></g><g><title>API</title><rect fill="#000000" fill-opacity="0.00000" height="136.5313" width="8" x="211.9839" y="118.5938"/><line style="stroke:#181818;stroke-width:0.5;stroke-dasharray:5,5;" x1="215.9839" x2="215.9839" y1="118.5938" y2="255.125"/></g><g><title>Database</title><rect fill="#000000" fill-opacity="0.00000" height="136.5313" width="8" x="592.3857" y="118.5938"/><line style="stroke:#181818;stroke-width:0.5;stroke-dasharray:5,5;" x1="595.9854" x2="595.9854" y1="118.5938" y2="255.125"/></g><g class="participant participant-head" data-participant="User"><text fill="#000000" font-family="sans-serif" font-size="14" lengthAdjust="spacing" textLength="31.9102" x="5" y="115.292">User</text><ellipse cx="23.9551" cy="50.7969" fill="#E2E2F0" rx="8" ry="8" style="stroke:#181818;stroke-width:0.5;"/><path d="M23.9551,58.7969 L23.9551,85.7969 M10.9551,66.7969 L36.9551,66.7969 M23.9551,85.7969 L10.9551,100.7969 M23.9551,85.7969 L36.9551,100.7969" fill="none" style="stroke:#181818;stroke-width:0.5;"/></g><g class="participant participant-tail" data-participant="User"><text fill="#000000" font-family="sans-serif" font-size="14" lengthAdjust="spacing" textLength="31.9102" x="5" y="267.1201">User</text><ellipse cx="23.9551" cy="278.9219" fill="#E2E2F0" rx="8" ry="8" style="stroke:#181818;stroke-width:0.5;"/><path d="M23.9551,286.9219 L23.9551,313.9219 M10.9551,294.9219 L36.9551,294.9219 M23.9551,313.9219 L10.9551,328.9219 M23.9551,313.9219 L36.9551,328.9219" fill="none" style="stroke:#181818;stroke-width:0.5;"/></g><g class="participant participant-head" data-participant="API"><text fill="#000000" font-family="sans-serif" font-size="14" lengthAdjust="spacing" textLength="22.1484" x="201.9097" y="115.292">API</text><ellipse cx="215.9839" cy="86.2969" fill="#E2E2F0" rx="12" ry="12" style="stroke:#181818;stroke-width:0.5;"/><line style="stroke:#181818;stroke-width:0.5;" x1="203.9839" x2="227.9839" y1="100.2969" y2="100.2969"/></g><g class="participant participant-tail" data-participant="API"><text fill="#000000" font-family="sans-serif" font-size="14" lengthAdjust="spacing" textLength="22.1484" x="201.9097" y="267.1201">API</text><ellipse cx="215.9839" cy="286.4219" fill="#E2E2F0" rx="12" ry="12" style="stroke:#181818;stroke-width:0.5;"/><line style="stroke:#181818;stroke-width:0.5;" x1="203.9839" x2="227.9839" y1="300.4219" y2="300.4219"/></g><g class="participant participant-head" data-participant="Database"><text fill="#000000" font-family="sans-serif" font-size="14" lengthAdjust="spacing" textLength="66.8008" x="559.9854" y="115.292">Database</text><ellipse cx="596.3857" cy="86.2969" fill="#E2E2F0" rx="12" ry="12" style="stroke:#181818;stroke-width:0.5;"/><line style="stroke:#181818;stroke-width:0.5;" x1="584.3857" x2="608.3857" y1="100.2969" y2="100.2969"/></g><g class="participant participant-tail" data-participant="Database"><text fill="#000000" font-family="sans-serif" font-size="14" lengthAdjust="spacing" textLength="66.8008" x="559.9854" y="267.1201">Database</text><ellipse cx="596.3857" cy="286.4219" fill="#E2E2F0" rx="12" ry="12" style="stroke:#181818;stroke-width:0.5;"/><line style="stroke:#181818;stroke-width:0.5;" x1="584.3857" x2="608.3857" y1="300.4219" y2="300.4219"/></g><g class="message" data-participant-1="User" data-participant-2="API"><polygon fill="#181818" points="203.9839,145.7266,213.9839,149.7266,203.9839,153.7266,207.9839,149.7266" style="stroke:#181818;stroke-width:1;"/><line style="stroke:#181818;stroke-width:1;" x1="23.9551" x2="209.9839" y1="149.7266" y2="149.7266"/><text fill="#000000" font-family="sans-serif" font-size="13" lengthAdjust="spacing" textLength="132.7041" x="30.9551" y="144.6606">POST /users/register</text></g><g class="message" data-participant-1="API" data-participant-2="Database"><polygon fill="#181818" points="584.3857,174.8594,594.3857,178.8594,584.3857,182.8594,588.3857,178.8594" style="stroke:#181818;stroke-width:1;"/><line style="stroke:#181818;stroke-width:1;" x1="215.9839" x2="590.3857" y1="178.8594" y2="178.8594"/><text fill="#000000" font-family="sans-serif" font-size="13" lengthAdjust="spacing" textLength="122.332" x="222.9839" y="173.7935">Validate User Data</text></g><g class="message" data-participant-1="Database" data-participant-2="API"><polygon fill="#181818" points="226.9839,203.9922,216.9839,207.9922,226.9839,211.9922,222.9839,207.9922" style="stroke:#181818;stroke-width:1;"/><line style="stroke:#181818;stroke-width:1;stroke-dasharray:2,2;" x1="220.9839" x2="595.3857" y1="207.9922" y2="207.9922"/><text fill="#000000" font-family="sans-serif" font-size="13" lengthAdjust="spacing" textLength="356.4019" x="232.9839" y="202.9263">Return Validation Result (e.g., success/failure, user ID)</text></g><g class="message" data-participant-1="API" data-participant-2="User"><polygon fill="#181818" points="34.9551,233.125,24.9551,237.125,34.9551,241.125,30.9551,237.125" style="stroke:#181818;stroke-width:1;"/><line style="stroke:#181818;stroke-width:1;stroke-dasharray:2,2;" x1="28.9551" x2="214.9839" y1="237.125" y2="237.125"/><text fill="#000000" font-family="sans-serif" font-size="13" lengthAdjust="spacing" textLength="168.0288" x="40.9551" y="232.0591">User Registered (or Error)</text></g><!--SRC=[JK-v2iCm3Dtz5HeRoB5dA1JI8LD3UkngeWQ3IK2IX_vzvRI6RkATUker4Do564PQl2YZ-crr3YVTU2SShUhr3QUXpsU7YayKScvtLiT4jZ1ShZTeea7Iy9vcRcEI85jQU63mC-glDU4kar3bg94qyfgrzf4X4eF2WUgbBa7YD958yq8V8bC9gHNwhlZsMKnAR_-N4TCC1njrPjwu-000]--></g></svg>